<?xml version="1.0" encoding="UTF-8" standalone="no"?>
<svg
   xmlns:dc="http://purl.org/dc/elements/1.1/"
   xmlns:cc="http://creativecommons.org/ns#"
   xmlns:rdf="http://www.w3.org/1999/02/22-rdf-syntax-ns#"
   xmlns:svg="http://www.w3.org/2000/svg"
   xmlns="http://www.w3.org/2000/svg"
   xmlns:sodipodi="http://sodipodi.sourceforge.net/DTD/sodipodi-0.dtd"
   xmlns:inkscape="http://www.inkscape.org/namespaces/inkscape"
   width="1400"
   height="100"
   viewBox="0 0 1400 100"
   version="1.1"
   id="svg8"
   inkscape:version="1.0.2-2 (e86c870879, 2021-01-15)"
   sodipodi:docname="barLine_03_04.svg">
  <defs
     id="defs2" />
  <sodipodi:namedview
     id="base"
     pagecolor="#ffffff"
     bordercolor="#666666"
     borderopacity="1.0"
     inkscape:pageopacity="0.0"
     inkscape:pageshadow="2"
     inkscape:zoom="0.35"
     inkscape:cx="1179.878"
     inkscape:cy="141.15437"
     inkscape:document-units="px"
     inkscape:current-layer="layer1"
     inkscape:document-rotation="0"
     showgrid="false"
     units="px"
     inkscape:window-width="1920"
     inkscape:window-height="1017"
     inkscape:window-x="-8"
     inkscape:window-y="-8"
     inkscape:window-maximized="1" />
  <metadata
     id="metadata5">
    <rdf:RDF>
      <cc:Work
         rdf:about="">
        <dc:format>image/svg+xml</dc:format>
        <dc:type
           rdf:resource="http://purl.org/dc/dcmitype/StillImage" />
        <dc:title></dc:title>
      </cc:Work>
    </rdf:RDF>
  </metadata>
  <g
     inkscape:label="Layer 1"
     inkscape:groupmode="layer"
     id="layer1">
    <a
       id="a14"
       transform="matrix(3.7795275,0,0,3.7795275,0,3.9076543e-4)" />
    <path
       id="path12"
       style="fill:#f4fbfd;fill-opacity:1;stroke:none;stroke-width:1.08012px;stroke-linecap:butt;stroke-linejoin:miter;stroke-opacity:1"
       d="M 1047.6966,49.497866 C 913.29754,12.278723 743.18362,7.7166477 604.57632,39.396341 465.96899,71.076031 357.36406,61.49686 248.66589,36.365878 170.75046,18.35186 51.278785,50.000392 0,50.000392 V 100.00039 H 1400 V 50.000392 c -48.5484,0 -217.9044,36.716617 -352.3034,-0.502526 z"
       sodipodi:nodetypes="sssccccs" />
    <path
       id="path12-7"
       style="fill:#ace1ee;fill-opacity:1;stroke:none;stroke-width:1.08012px;stroke-linecap:butt;stroke-linejoin:miter;stroke-opacity:1"
       d="m 1400,50.000388 c -42.4144,0 -177.0371,28.020309 -300,10.283202 v 0 c 60.0271,12.913739 108.6149,21.497076 170.9262,20.057325 48.2608,-1.115104 103.2422,1.526896 129.0738,9.659475 z"
       sodipodi:nodetypes="cccscc" />
    <path
       id="path12-7-0"
       style="fill:#acd4ee;fill-opacity:1;stroke:none;stroke-width:1.08012px;stroke-linecap:butt;stroke-linejoin:miter;stroke-opacity:1"
       d="m 1344.0078,55.08242 c -46.1403,5.321045 -110.1419,12.667453 -176.2715,10.785158 v 0 c 32.2132,3.808467 64.4272,5.320418 102.0313,1.92187 23.9836,-2.167559 42.6686,-4.936002 74.2402,-12.707028 z"
       sodipodi:nodetypes="cccsc" />
  </g>
</svg>
