<svg xmlns="http://www.w3.org/2000/svg" width="1400" height="100"><path d="M1047.697 49.498c-134.4-37.22-304.513-41.781-443.12-10.102-138.608 31.68-247.213 22.1-355.911-3.03C170.75 18.352 51.279 50 0 50v50h1400V50c-48.548 0-217.904 36.717-352.303-.502z" fill="#f4fbfd"/><path d="M1400 50c-42.414 0-177.037 28.02-300 10.284 60.027 12.913 108.615 21.497 170.926 20.057 48.261-1.115 103.242 1.527 129.074 9.66z" fill="#ace1ee"/><path d="M1344.008 55.082c-46.14 5.321-110.142 12.668-176.272 10.786 32.213 3.808 64.427 5.32 102.032 1.921 23.983-2.167 42.668-4.936 74.24-12.707z" fill="#acd4ee"/></svg>