<?xml version="1.0" encoding="UTF-8" standalone="no"?>
<svg
   xmlns:dc="http://purl.org/dc/elements/1.1/"
   xmlns:cc="http://creativecommons.org/ns#"
   xmlns:rdf="http://www.w3.org/1999/02/22-rdf-syntax-ns#"
   xmlns:svg="http://www.w3.org/2000/svg"
   xmlns="http://www.w3.org/2000/svg"
   xmlns:sodipodi="http://sodipodi.sourceforge.net/DTD/sodipodi-0.dtd"
   xmlns:inkscape="http://www.inkscape.org/namespaces/inkscape"
   width="1400"
   height="100"
   viewBox="0 0 370.41666 26.458334"
   version="1.1"
   id="svg8"
   inkscape:version="1.0.2-2 (e86c870879, 2021-01-15)"
   sodipodi:docname="barLine_01_02.svg">
  <defs
     id="defs2" />
  <sodipodi:namedview
     id="base"
     pagecolor="#ffffff"
     bordercolor="#666666"
     borderopacity="1.0"
     inkscape:pageopacity="0.0"
     inkscape:pageshadow="2"
     inkscape:zoom="3.959798"
     inkscape:cx="1047.6821"
     inkscape:cy="80.379478"
     inkscape:document-units="px"
     inkscape:current-layer="layer1"
     inkscape:document-rotation="0"
     showgrid="false"
     units="px"
     inkscape:window-width="1920"
     inkscape:window-height="1017"
     inkscape:window-x="-8"
     inkscape:window-y="-8"
     inkscape:window-maximized="1" />
  <metadata
     id="metadata5">
    <rdf:RDF>
      <cc:Work
         rdf:about="">
        <dc:format>image/svg+xml</dc:format>
        <dc:type
           rdf:resource="http://purl.org/dc/dcmitype/StillImage" />
        <dc:title />
      </cc:Work>
    </rdf:RDF>
  </metadata>
  <g
     inkscape:label="Layer 1"
     inkscape:groupmode="layer"
     id="layer1">
    <a
       id="a14" />
    <path
       id="path12"
       style="fill:#ffffff;fill-opacity:1;stroke:none;stroke-width:0.285783px;stroke-linecap:butt;stroke-linejoin:miter;stroke-opacity:1"
       d="M 264.58333,5.2916667 C 220.47972,6.4466568 146.7423,22.62061 105.83333,21.166667 64.924369,19.712724 0,13.229167 0,13.229167 V 26.458333 H 370.41667 V 13.229167 c 0,0 -61.72972,-9.0924904 -105.83334,-7.9375003 z"
       sodipodi:nodetypes="zzccccz" />
    <path
       id="path12-8"
       style="fill:#f4fbfd;fill-opacity:1;stroke:none;stroke-width:0.285782px;stroke-linecap:butt;stroke-linejoin:miter;stroke-opacity:1"
       d="m 273.04018,5.190381 c -2.8748,-0.00315 -5.70037,0.029099 -8.45685,0.1012856 -44.10361,1.1549901 -117.84103,17.3289434 -158.75,15.8750004 -5.10143,-0.18131 -10.576883,-0.441133 -16.252751,-0.756543 5.408474,1.030916 12.627531,2.015777 18.986201,2.2212 4.03223,0.10831 27.99571,-0.19077 56.50429,-3.966126 28.50857,-3.775357 41.90277,-4.160422 62.0799,-6.973428 20.17714,-2.8130069 36.73778,-2.1967516 42.41344,-2.2662221 5.67565,-0.06947 76.798,4.2575721 100.85226,11.7411191 v -7.9375 C 365.26674,12.520462 316.16226,5.2376292 273.04018,5.190381 Z"
       sodipodi:nodetypes="ssscczzzccs" />
    <path
       id="path12-4"
       style="fill:#ace1ee;fill-opacity:1;stroke:none;stroke-width:1.08012px;stroke-linecap:butt;stroke-linejoin:miter;stroke-opacity:1"
       d="M 1031.9629,19.617188 C 1021.0975,19.605282 1010.4182,19.727168 1000,20 932.65085,21.763747 846.9707,32.81422 758.625,44.972656 c 88.10929,-8.30879 153.12116,-14.740427 211.35067,-17.878822 58.22953,-3.138395 157.62213,3.067481 191.78553,5.320541 34.1634,2.253059 200.8255,22.906874 238.2388,32.585626 l 0,-15 C 1373.2143,46.428572 1194.944,19.795764 1031.9629,19.617188 Z"
       transform="scale(0.26458333)"
       sodipodi:nodetypes="ssczzccs" />
    <path
       id="path12-3"
       style="fill:#acd4ee;fill-opacity:1;stroke:none;stroke-width:1.08012px;stroke-linecap:butt;stroke-linejoin:miter;stroke-opacity:1"
       d="M 1031.9629,19.617188 C 1021.0975,19.605282 1010.4182,19.727168 1000,20 c -11.61926,0.304286 -23.80003,0.892914 -36.42773,1.707031 12.48214,0.132172 54.86503,1.067901 114.98953,2.881767 60.1246,1.813865 102.1864,3.23575 169.2956,7.317452 -66.4085,-6.469889 -145.1159,-12.211511 -215.8945,-12.289062 z"
       transform="scale(0.26458333)"
       sodipodi:nodetypes="ssczcs" />
  </g>
</svg>
