<svg xmlns="http://www.w3.org/2000/svg" width="1400" height="100"><path d="M1000 75c-165.686-2.182-433.315-13.611-600-15C233.315 58.611 0 70 0 70v30h1400V50s-234.314 27.182-400 25z" fill="#acd4ee"/><path d="M1000 80c-166.964-4.856-432.66-51.383-600-50C232.66 31.383 0 70 0 70v30h1400V70s-233.036 14.856-400 10z" fill="#f4fbfd"/><path d="M407.916 29.97c-2.662 0-5.301.008-7.916.03C232.66 31.383 0 70 0 70s232.66-36.617 400-38c167.34-1.383 399.383 45.242 600 54 133.207 5.815 400-1 400-1V70s-233.036 14.856-400 10c-164.355-4.78-424.38-49.938-592.084-50.03z" fill="#ace1ee"/></svg>