<?xml version="1.0" encoding="UTF-8" standalone="no"?>
<svg
   xmlns:dc="http://purl.org/dc/elements/1.1/"
   xmlns:cc="http://creativecommons.org/ns#"
   xmlns:rdf="http://www.w3.org/1999/02/22-rdf-syntax-ns#"
   xmlns:svg="http://www.w3.org/2000/svg"
   xmlns="http://www.w3.org/2000/svg"
   xmlns:sodipodi="http://sodipodi.sourceforge.net/DTD/sodipodi-0.dtd"
   xmlns:inkscape="http://www.inkscape.org/namespaces/inkscape"
   width="1400"
   height="100"
   viewBox="0 0 1400 100"
   version="1.1"
   id="svg8"
   inkscape:version="1.0.2-2 (e86c870879, 2021-01-15)"
   sodipodi:docname="barLine_start_01.svg">
  <defs
     id="defs2" />
  <sodipodi:namedview
     id="base"
     pagecolor="#ffffff"
     bordercolor="#666666"
     borderopacity="1.0"
     inkscape:pageopacity="0.0"
     inkscape:pageshadow="2"
     inkscape:zoom="0.98994949"
     inkscape:cx="889.93571"
     inkscape:cy="-11.202275"
     inkscape:document-units="px"
     inkscape:current-layer="layer1"
     inkscape:document-rotation="0"
     showgrid="false"
     units="px"
     inkscape:window-width="1920"
     inkscape:window-height="1017"
     inkscape:window-x="-8"
     inkscape:window-y="-8"
     inkscape:window-maximized="1" />
  <metadata
     id="metadata5">
    <rdf:RDF>
      <cc:Work
         rdf:about="">
        <dc:format>image/svg+xml</dc:format>
        <dc:type
           rdf:resource="http://purl.org/dc/dcmitype/StillImage" />
        <dc:title></dc:title>
      </cc:Work>
    </rdf:RDF>
  </metadata>
  <g
     inkscape:label="Layer 1"
     inkscape:groupmode="layer"
     id="layer1">
    <path
       id="path12-8"
       style="fill:#acd4ee;fill-opacity:1;stroke:none;stroke-width:1.08012px;stroke-linecap:butt;stroke-linejoin:miter;stroke-opacity:1"
       d="M 1000,75 C 834.31425,72.81827 566.68518,61.388657 400,60 233.31482,58.611343 0,70 0,70 V 99.999997 H 1400 V 50 c 0,0 -234.3143,27.18173 -400,25 z"
       sodipodi:nodetypes="zzccccz" />
    <a
       id="a14"
       transform="scale(3.7795275)" />
    <path
       id="path12"
       style="fill:#f4fbfd;fill-opacity:1;stroke:none;stroke-width:1.08012px;stroke-linecap:butt;stroke-linejoin:miter;stroke-opacity:1"
       d="M 1000,80 C 833.03647,75.144465 567.34008,28.617119 400,30 232.65992,31.382881 0,70 0,70 V 99.999997 H 1400 V 70 c 0,0 -233.0365,14.855535 -400,10 z"
       sodipodi:nodetypes="zzccccz" />
    <path
       id="path12-9"
       style="fill:#ace1ee;fill-opacity:1;stroke:none;stroke-width:1.08012px;stroke-linecap:butt;stroke-linejoin:miter;stroke-opacity:1"
       d="M 407.91602,29.970703 C 405.25405,29.969259 402.61469,29.978393 400,30 232.65992,31.38288 0,70 0,70 v 0 c 0,0 232.65992,-36.61712 400,-38 167.34008,-1.38288 399.38272,45.241693 600,54 133.2069,5.815385 400,-1 400,-1 V 70 c 0,0 -233.0365,14.855535 -400,10 C 835.64528,75.220333 575.61965,30.061703 407.91602,29.970703 Z"
       sodipodi:nodetypes="ssccsaccss" />
  </g>
</svg>
