<?xml version="1.0" encoding="UTF-8" standalone="no"?>
<svg
   xmlns:dc="http://purl.org/dc/elements/1.1/"
   xmlns:cc="http://creativecommons.org/ns#"
   xmlns:rdf="http://www.w3.org/1999/02/22-rdf-syntax-ns#"
   xmlns:svg="http://www.w3.org/2000/svg"
   xmlns="http://www.w3.org/2000/svg"
   xmlns:sodipodi="http://sodipodi.sourceforge.net/DTD/sodipodi-0.dtd"
   xmlns:inkscape="http://www.inkscape.org/namespaces/inkscape"
   width="1400"
   height="100"
   viewBox="0 0 370.41666 26.458334"
   version="1.1"
   id="svg8"
   inkscape:version="1.0.2-2 (e86c870879, 2021-01-15)"
   sodipodi:docname="barLine_03_end.svg">
  <defs
     id="defs2" />
  <sodipodi:namedview
     id="base"
     pagecolor="#ffffff"
     bordercolor="#666666"
     borderopacity="1.0"
     inkscape:pageopacity="0.0"
     inkscape:pageshadow="2"
     inkscape:zoom="0.49497475"
     inkscape:cx="817.75813"
     inkscape:cy="-141.85491"
     inkscape:document-units="px"
     inkscape:current-layer="layer1"
     inkscape:document-rotation="0"
     showgrid="false"
     units="px"
     inkscape:window-width="1920"
     inkscape:window-height="1017"
     inkscape:window-x="-8"
     inkscape:window-y="-8"
     inkscape:window-maximized="1" />
  <metadata
     id="metadata5">
    <rdf:RDF>
      <cc:Work
         rdf:about="">
        <dc:format>image/svg+xml</dc:format>
        <dc:type
           rdf:resource="http://purl.org/dc/dcmitype/StillImage" />
        <dc:title />
      </cc:Work>
    </rdf:RDF>
  </metadata>
  <g
     inkscape:label="Layer 1"
     inkscape:groupmode="layer"
     id="layer1">
    <a
       id="a14"
       transform="matrix(1,0,0,0.58947359,0,-0.05989167)" />
    <a
       id="a14-5"
       transform="matrix(-0.99999994,0,0,0.58947359,370.41667,-5.915309e-5)" />
    <path
       id="rect1309"
       style="fill:#f1f1f1;fill-opacity:1;stroke:none;stroke-width:0.661458;stroke-linejoin:round"
       d="M -26.458333,26.458333 H 396.875 V 15.875 c 0,0 -17.46424,-5.291667 -26.45834,-5.291667 -8.9941,0 -26.45833,5.291667 -26.45833,5.291667 0,0 -17.46423,-5.291667 -26.45833,-5.291667 -8.9941,0 -26.45833,5.291667 -26.45833,5.291667 0,0 -17.46424,-5.291667 -26.45834,-5.291667 -8.9941,0 -26.45833,5.291667 -26.45833,5.291667 0,0 -17.46423,-5.291667 -26.45833,-5.291667 -8.9941,0 -26.45834,5.291667 -26.45834,5.291667 0,0 -17.46423,-5.291667 -26.45833,-5.291667 -8.9941,0 -26.45833,5.291667 -26.45833,5.291667 0,0 -17.46424,-5.291667 -26.45834,-5.291667 -8.994104,0 -26.45833,5.291667 -26.45833,5.291667 0,0 -17.464229,-5.291667 -26.458333,-5.291667 -8.994104,0 -26.458334,5.291667 -26.458334,5.291667 0,0 -17.4642292,-5.291667 -26.458333,-5.291667 -8.9941038,0 -26.458333,5.291667 -26.458333,5.291667 z"
       sodipodi:nodetypes="ccczczczczczczczczcc" />
  </g>
</svg>
